<svg id="Camada_1" data-name="Camada 1" xmlns="http://www.w3.org/2000/svg" viewBox="0 0 38.26 38.2"><defs><style>.cls-1{fill:#05dbf2;}</style></defs><path class="cls-1" d="M36.54,1.85V36.33c0,.26,0,.32-.31.32H1.74c0-.1,0-.2,0-.3q0-17.06,0-34.1c0-.32.1-.46.43-.42a1,1,0,0,0,.17,0H36.06ZM3.94,19.21V33.93c0,.51,0,.51.5.51q14.7,0,29.39,0c.51,0,.51,0,.51-.5V4.55c0-.5,0-.51-.52-.51H4.47c-.53,0-.53,0-.53.53Z"/><path class="cls-1" d="M8,19.27V11.15c0-.48,0-.49.48-.55a33,33,0,0,1,5.79-.27,7.38,7.38,0,0,1,4.29,1.28,4.84,4.84,0,0,1,2,3.77,5.74,5.74,0,0,1-1.06,3.95,6.11,6.11,0,0,1-3.69,2.18,10.64,10.64,0,0,1-3.47.22c-.33,0-.35.15-.34.39v5.09c0,.1,0,.21,0,.31,0,.33-.12.43-.44.43H8.43c-.43,0-.46,0-.46-.47ZM12,16c0,.72,0,1.45,0,2.17,0,.27.07.38.36.41a7.3,7.3,0,0,0,1.55,0,2.7,2.7,0,0,0,2.67-3,2.14,2.14,0,0,0-1.35-1.92,5.45,5.45,0,0,0-2.94-.22c-.22,0-.3.16-.29.38C12,14.57,12,15.3,12,16Z"/><path class="cls-1" d="M24.74,28.17a9.27,9.27,0,0,1-3.62-.67c-.47-.19-.46-.2-.34-.68.16-.68.35-1.35.5-2,.07-.3.17-.35.46-.22a6.8,6.8,0,0,0,3.4.78,2,2,0,0,0,.72-.16.92.92,0,0,0,.19-1.59,3.51,3.51,0,0,0-.91-.45,12.16,12.16,0,0,1-2.61-1.22,3.55,3.55,0,0,1-.36-5.59A5.16,5.16,0,0,1,25.43,15a9,9,0,0,1,4,.54.39.39,0,0,1,.28.56c-.19.66-.35,1.33-.52,2-.1.38-.11.39-.48.22a6.43,6.43,0,0,0-2.19-.56,2.25,2.25,0,0,0-1,.14.83.83,0,0,0-.62.7.85.85,0,0,0,.44.88,6.94,6.94,0,0,0,1.33.6,12,12,0,0,1,2,.95,3.75,3.75,0,0,1-.2,6.34A7,7,0,0,1,24.74,28.17Z"/></svg>