<svg id="Camada_1" data-name="Camada 1" xmlns="http://www.w3.org/2000/svg" viewBox="0 0 37.26 38.2"><defs><style>.cls-1{fill:#05dbf2;}</style></defs><path class="cls-1" d="M1.7,37V3.25c0-.25.05-.31.3-.31H35.79c0,.1,0,.2,0,.3q0,16.7,0,33.4c0,.32-.1.45-.42.41a.86.86,0,0,0-.16,0H2.17C2,37.06,1.86,37,1.7,37Zm17.05-2.15H33.13c.51,0,.51,0,.51-.52V5.6c0-.5,0-.5-.5-.5H4.35c-.49,0-.5,0-.5.5V34.36c0,.52,0,.52.52.52Z"/><path class="cls-1" d="M16,11.92c.7,0,1.4,0,2.1,0a.46.46,0,0,1,.51.39q1.58,5.11,3.17,10.23c.6,1.92,1.19,3.85,1.79,5.78.13.42.13.43-.3.43-1.1,0-2.2,0-3.3,0a.49.49,0,0,1-.55-.43c-.34-1.17-.71-2.33-1.05-3.5a.41.41,0,0,0-.46-.36h-4a.42.42,0,0,0-.46.36c-.32,1.19-.66,2.37-1,3.56a.42.42,0,0,1-.49.36H8.83c-.45,0-.46,0-.33-.45Q10.42,22,12.35,15.7c.35-1.14.71-2.27,1-3.41a.47.47,0,0,1,.52-.38C14.62,11.93,15.33,11.92,16,11.92Zm-.15,3a.8.8,0,0,0-.08.14L14.22,21.2c-.08.29.08.32.3.32h2.86c.26,0,.34-.09.26-.34-.14-.45-.26-.9-.39-1.35C16.8,18.23,16.36,16.62,15.89,15Z"/><path class="cls-1" d="M29,22.62v5.62c0,.5,0,.5-.5.5h-3c-.31,0-.43-.08-.43-.41,0-3.8,0-7.6,0-11.4,0-.33.13-.42.43-.42,1,0,2,0,3,0,.34,0,.44.13.43.45C29,18.85,29,20.73,29,22.62Z"/><path class="cls-1" d="M27,15.09a1.86,1.86,0,0,1-2-1.92,1.86,1.86,0,0,1,2-1.92,1.93,1.93,0,1,1,0,3.84Z"/></svg>