<svg id="Camada_1" data-name="Camada 1" xmlns="http://www.w3.org/2000/svg" viewBox="0 0 34.92 38.2"><defs><style>.cls-1{fill:#05dbf2;}</style></defs><path class="cls-1" d="M13.18,36.77A7.54,7.54,0,0,1,10,35.37a6.71,6.71,0,0,1,0-10.57l.05,0c.35-.27.35-.27,0-.54a6.44,6.44,0,0,1-2.54-4.34,6.55,6.55,0,0,1,2.49-6.27c.38-.32.39-.31,0-.61A6.62,6.62,0,0,1,7.57,6.05a6.59,6.59,0,0,1,5.51-5A5,5,0,0,1,14,1H25.61a6.68,6.68,0,0,1,6.65,6.67,6.59,6.59,0,0,1-2.66,5.4c-.23.18-.28.26,0,.46a6.7,6.7,0,0,1,.79,10,6.9,6.9,0,0,1-9,.68L21,24c-.12.11-.07.25-.07.36v5.41a6.81,6.81,0,0,1-5.86,6.95l-.09,0Zm5.5-29.08c0-1.35,0-2.7,0-4.05,0-.29-.1-.38-.38-.37H13.9a3,3,0,0,0-.42,0A4.5,4.5,0,0,0,9.63,8.15a4.51,4.51,0,0,0,4.37,4c1.43,0,2.86,0,4.29,0,.32,0,.4-.11.39-.4C18.67,10.41,18.68,9.05,18.68,7.69Zm2.27,0v3.83c0,.67-.06.61.59.61h3.8a7.89,7.89,0,0,0,.84-.05,4.45,4.45,0,0,0-.52-8.85c-1.43,0-2.87,0-4.3,0-.31,0-.42.09-.42.42C21,5,21,6.38,21,7.73ZM18.68,18.91c0-1.34,0-2.69,0-4,0-.35-.11-.44-.44-.43-1.08,0-2.16,0-3.24,0a9.33,9.33,0,0,0-1.67.06A4.45,4.45,0,0,0,14,23.34h4.3c.33,0,.41-.12.4-.42C18.67,21.59,18.68,20.25,18.68,18.91Zm-2.75,6.71c-.74,0-1.65-.06-2.55.06a4.45,4.45,0,0,0,.94,8.84,4.54,4.54,0,0,0,4.35-4.35c0-1.4,0-2.79,0-4.19,0-.3-.11-.37-.39-.37C17.56,25.63,16.83,25.62,15.93,25.62Zm9.55-11.17A4.45,4.45,0,1,0,30,18.91,4.44,4.44,0,0,0,25.48,14.45Z"/></svg>