<svg id="Camada_1" data-name="Camada 1" xmlns="http://www.w3.org/2000/svg" viewBox="0 0 35 29"><defs><style>.cls-1{fill:#05dbf2;}</style></defs><path class="cls-1" d="M27.66,4.74a5.39,5.39,0,0,1,2.69,1.55,7.29,7.29,0,0,1,1,1.38c0,.06-1.86,1.31-3,2,0,0-.21-.15-.39-.42a2.47,2.47,0,0,0-.86-.87A2.37,2.37,0,0,0,26,8.05c-1.31-.09-2.15.59-2.14,1.73a1.63,1.63,0,0,0,.18.81c.29.59.82.95,2.5,1.67,3.08,1.33,4.4,2.2,5.21,3.44a6.18,6.18,0,0,1,.83,2.57A6.25,6.25,0,0,1,32.24,21a5.78,5.78,0,0,1-1.92,2.35,5.86,5.86,0,0,1-2.84,1.06,13.34,13.34,0,0,1-3.28,0A7.87,7.87,0,0,1,19.82,22a7.8,7.8,0,0,1-1.12-1.66,3.34,3.34,0,0,1,.4-.25l1.6-.92,1.23-.73.26.38a5.8,5.8,0,0,0,1.64,1.56,3.93,3.93,0,0,0,2.12.49,4,4,0,0,0,2.06-.7,1.85,1.85,0,0,0,.56-1.15,2,2,0,0,0-.31-1.24c-.34-.47-1-.88-3-1.72a10.61,10.61,0,0,1-4.06-2.49,5.8,5.8,0,0,1-1.18-2.15A8.68,8.68,0,0,1,20,8.72,5.26,5.26,0,0,1,21.55,6,5.18,5.18,0,0,1,24.4,4.64,10.81,10.81,0,0,1,27.66,4.74ZM17.56,6.53V8.29H12V24.21H8V8.3H2.41V6.57a17.63,17.63,0,0,1,0-1.78s3.43,0,7.56,0l7.52,0Z"/></svg>