<svg id="Camada_1" data-name="Camada 1" xmlns="http://www.w3.org/2000/svg" viewBox="0 0 35 28.99"><defs><style>.cls-1{fill:#05dbf2;}</style></defs><path class="cls-1" d="M2.12,22.13l3.57-2.25c.69,1.27,1.32,2.34,2.82,2.34s2.35-.58,2.35-2.87V3.83h4.38V19.42c0,4.73-2.66,6.88-6.54,6.88A6.79,6.79,0,0,1,2.12,22.13Zm15.51-.49,3.57-2.16a4.76,4.76,0,0,0,4.32,2.78c1.82,0,3-1,3-2.25,0-1.57-1.2-2.12-3.2-3l-1.1-.49c-3.16-1.4-5.26-3.16-5.26-6.88,0-3.43,2.51-6,6.42-6A6.44,6.44,0,0,1,31.6,7.22L28.18,9.5c-.75-1.4-1.56-1.95-2.82-1.95a1.94,1.94,0,0,0-2.1,2c0,1.37.82,1.93,2.7,2.78l1.09.48c3.73,1.67,5.83,3.36,5.83,7.18,0,4.11-3.1,6.36-7.27,6.36A8.36,8.36,0,0,1,17.63,21.64Z"/></svg>