<svg id="Camada_1" data-name="Camada 1" xmlns="http://www.w3.org/2000/svg" viewBox="0 0 38.19 35"><defs><style>.cls-1{fill:#05dbf2;}</style></defs><path class="cls-1" d="M30.52,12.09l-1.13-.38c0-.25.13-.5.13-.75.87-4.12.25-7.5-1.63-8.62S23,2.34,20,5c-.25.25-.63.5-.88.75-.25-.12-.37-.37-.62-.5-3-2.75-6.13-3.87-8-2.75S8.14,6.71,8.89,10.59c.13.37.13.75.25,1.12-.5.13-.87.25-1.25.38-3.75,1.25-6.12,3.37-6.12,5.37s2.5,4.38,6.37,5.63a2.45,2.45,0,0,0,1,.25,4.55,4.55,0,0,0-.25,1.25c-.75,3.87-.12,6.87,1.63,8s5,0,8.12-2.75a3.49,3.49,0,0,1,.75-.63,7.46,7.46,0,0,0,1,.88c3,2.62,5.88,3.62,7.75,2.5s2.5-4.38,1.75-8.38a3.71,3.71,0,0,0-.25-1c.25-.12.5-.12.63-.25,4-1.37,6.62-3.5,6.62-5.62C36.77,15.46,34.27,13.46,30.52,12.09ZM21.14,6.21c2.63-2.25,5-3.12,6.13-2.5s1.62,3.38.87,7c0,.25-.12.5-.12.75a31,31,0,0,0-4.63-.75,37.88,37.88,0,0,0-3-3.75Zm-9,13.13c.38.62.63,1.25,1,1.87A20.49,20.49,0,0,0,14.27,23a27.75,27.75,0,0,1-3.25-.5A18.81,18.81,0,0,1,12.14,19.34Zm0-3.5a28.09,28.09,0,0,1-1.12-3,26,26,0,0,1,3.12-.5c-.37.62-.75,1.12-1.12,1.75S12.39,15.21,12.14,15.84Zm.75,1.75c.5-1,1-1.88,1.5-2.88s1.13-1.87,1.75-2.75a28.36,28.36,0,0,1,3.25-.12,29.33,29.33,0,0,1,3.25.12,19.72,19.72,0,0,1,1.63,2.75c.5.88,1,1.88,1.5,2.88-.5,1-1,1.87-1.5,2.87s-1.13,1.88-1.63,2.75a26.11,26.11,0,0,1-3.25.13,24.11,24.11,0,0,1-3.12-.13c-.63-.87-1.13-1.75-1.75-2.75A32.14,32.14,0,0,1,12.89,17.59Zm12.5,3.62a13.09,13.09,0,0,0,1-1.87,13.35,13.35,0,0,1,1.13,3.12,28.41,28.41,0,0,1-3.25.5A9.82,9.82,0,0,0,25.39,21.21Zm1-5.37c-.37-.63-.62-1.25-1-1.88a12.42,12.42,0,0,1-1-1.75c1.13.13,2.13.38,3.25.5A22.44,22.44,0,0,1,26.39,15.84ZM19.27,8a20.29,20.29,0,0,1,2,2.5,23.74,23.74,0,0,0-4.13,0C17.89,9.59,18.64,8.71,19.27,8Zm-8-4.25c1.12-.62,3.75.25,6.5,2.75l.5.5a21.85,21.85,0,0,0-3,3.75,28.5,28.5,0,0,0-4.63.75c-.12-.37-.12-.75-.25-1.12C9.64,7,10.14,4.34,11.27,3.71ZM9.52,22.09c-.25-.13-.63-.13-.88-.25a15.83,15.83,0,0,1-4.12-2.13,3,3,0,0,1-1.25-2.12c0-1.25,1.87-2.88,5.12-4,.38-.13.75-.25,1.25-.38a18.81,18.81,0,0,0,1.63,4.38A33.39,33.39,0,0,0,9.52,22.09ZM17.64,29a14.26,14.26,0,0,1-3.87,2.5,3.49,3.49,0,0,1-2.5.13c-1.13-.63-1.63-3.13-1-6.38a5.5,5.5,0,0,0,.25-1.37,20,20,0,0,0,4.75.62,37.88,37.88,0,0,0,3,3.75C18,28.46,17.89,28.71,17.64,29Zm1.63-1.75c-.75-.75-1.38-1.62-2.13-2.5h4.13A12.41,12.41,0,0,1,19.27,27.21Zm9.12,2.13c-.25,1.12-.62,1.87-1.12,2.12-1.13.63-3.5-.25-6-2.37-.25-.25-.63-.5-.88-.75a30.91,30.91,0,0,0,2.88-3.75A32.77,32.77,0,0,0,28,23.84c.12.25.12.62.25.87A11.82,11.82,0,0,1,28.39,29.34Zm1.25-7.5c-.25,0-.37.12-.62.12-.5-1.5-1.13-3-1.75-4.5A46.27,46.27,0,0,0,29,13.09a9.05,9.05,0,0,1,1,.37c3.25,1.13,5.25,2.75,5.25,4C35.27,19,33.14,20.71,29.64,21.84Z"/><path class="cls-1" d="M19.27,20.71a2.85,2.85,0,0,0,1.75-.5,3.83,3.83,0,0,0,1.12-1.37A3.28,3.28,0,0,0,22.27,17a3,3,0,0,0-.88-1.62,2.63,2.63,0,0,0-1.62-.88,4.79,4.79,0,0,0-1.88.13,2.51,2.51,0,0,0-1.37,1.12,2.85,2.85,0,0,0-.5,1.75,4.21,4.21,0,0,0,.25,1.25,2.61,2.61,0,0,0,.62,1,2.84,2.84,0,0,0,1,.63A3.25,3.25,0,0,0,19.27,20.71Z"/></svg>