<svg id="Camada_1" data-name="Camada 1" xmlns="http://www.w3.org/2000/svg" xmlns:xlink="http://www.w3.org/1999/xlink" viewBox="0 0 43.2 29.52"><defs><style>.cls-1{fill:#fff;}.cls-2{fill:none;}.cls-3{clip-path:url(#clip-path);}.cls-4{mask:url(#mask);}.cls-5{fill:#05dbf2;}</style><clipPath id="clip-path"><rect class="cls-2" x="1.52" y="-5.2" width="40" height="40"/></clipPath><mask id="mask" x="1.52" y="-5.2" width="40" height="40" maskUnits="userSpaceOnUse"><g id="mask0_1027_79" data-name="mask0 1027 79"><path class="cls-1" d="M41.52-5.2h-40v40h40Z"/></g></mask></defs><g class="cls-3"><g class="cls-4"><path class="cls-5" d="M21.52,2.8q-8,0-10,8,3-4,7-3a8.53,8.53,0,0,1,3.82,2.71c2,2,4.23,4.29,9.18,4.29q8,0,10-8-3,4-7,3a8.45,8.45,0,0,1-3.81-2.71C28.75,5.1,26.48,2.8,21.52,2.8Zm-10,12q-8,0-10,8c2-2.67,4.34-3.67,7-3a8.53,8.53,0,0,1,3.82,2.71c2,2,4.23,4.29,9.18,4.29q8,0,10-8-3,4-7,3a8.45,8.45,0,0,1-3.81-2.71C18.75,17.1,16.48,14.8,11.52,14.8Z"/></g></g></svg>