<svg id="Camada_1" data-name="Camada 1" xmlns="http://www.w3.org/2000/svg" xmlns:xlink="http://www.w3.org/1999/xlink" viewBox="0 0 59.4 17.34"><defs><style>.cls-1{fill:#fff;}.cls-2{mask:url(#mask);}.cls-3{fill:#05dbf2;}</style><mask id="mask" x="1.86" y="2.19" width="55.64" height="13.47" maskUnits="userSpaceOnUse"><g id="mask0_1027_53" data-name="mask0 1027 53"><path class="cls-1" d="M57.43,2.19H1.86V15.66H57.43Z"/></g></mask></defs><g class="cls-2"><path class="cls-3" d="M57.5,2.2V4.33H52.92V15.54h-2.3V4.33H46V2.2ZM12.6,15.54,4.15,5v10.5H1.86V2.19H4.72L15.4,15.44V2.2H27V4.33H17.69V7.76h7.44V9.89H17.69v3.52H27v2.13ZM34.29,9.87l1.5,1.87-3.07,3.82h-3ZM32.72,2.2,36.59,7l3.87-4.8h3L38.09,8.88l5.37,6.67h-3L29.72,2.2Z"/></g></svg>