<svg id="Camada_1" data-name="Camada 1" xmlns="http://www.w3.org/2000/svg" viewBox="0 0 45 22.68"><defs><style>.cls-1{fill:#05dbf2;}</style></defs><path class="cls-1" d="M29.11,2.45,29,3.1c-.2,1.24-.13,1.59.4,2.05l.51.42-.53,2.37a12.23,12.23,0,0,1-.95,3A4.18,4.18,0,0,0,27.91,12a1.78,1.78,0,0,1-.85.92,13.72,13.72,0,0,0-1.76,1.34,9.53,9.53,0,0,1-.93.76l-.55.43a2.25,2.25,0,0,0-.31.69.45.45,0,0,0,0,.38.45.45,0,0,0,.28.18,1.47,1.47,0,0,0,.47,0,5.38,5.38,0,0,0,1.05-.19l.29-.09c.12-.15.41-.43.91-.93,1.34-1.32,1.85-2,1.33-1.85-.2.07-.11-.11.22-.46.71-.69,1.12-1.73,2-5,.67-2.58.67-2.61,1.17-2.61.23,0,.88,0,.88,0V2.45h-3Zm6.4,5.28c-.11,0-.28.16-.39.33-.19.32,0,.51,3,2.33a27.49,27.49,0,0,1,3.08,2.1s-1.44,1-3.14,2c-3.07,1.9-3.08,1.92-2.8,2.31s0,.62,4-1.87l2.9-1.85v-1.4l-3.23-2C37.11,8.63,35.6,7.75,35.51,7.73ZM8.7,7.92c-.09,0-1.6.9-3.35,2l-3.26,2v1.39l3.24,2c1.8,1.11,3.32,2,3.39,2s.21-.16.35-.35,0-.48-2.94-2.37S3,12.6,3.27,12.4l3-1.85c3.3-2,3.13-1.89,2.86-2.31-.1-.18-.28-.33-.39-.32ZM23.17,8c-.48,0-1.53.74-4.66,3.3a.89.89,0,0,0-.09.68.43.43,0,0,0,.22.22,1,1,0,0,0,.37.09,3.28,3.28,0,0,0,.89-.07l.19,0a.59.59,0,0,1,.24-.2,20.92,20.92,0,0,0,1.81-1.64C23.57,8.85,23.91,8.2,23.33,8a.4.4,0,0,0-.15,0Zm3.66,1c-.42,0-1.2.5-2.52,1.56a4.94,4.94,0,0,1-1.31.89l-.87.69c-.33.6-.38,1-.29,1.17a.39.39,0,0,0,.23.23,1.09,1.09,0,0,0,.4.07,3.55,3.55,0,0,0,1-.14,4.42,4.42,0,0,0,.48-.15l0,0,.09,0c.17-.21.55-.62,1-1.09,1.52-1.46,2.29-2.5,2.13-2.89A.36.36,0,0,0,26.83,9Zm-4,1.8c-.12,0-.4.22-.89.66-.72.64-1.51,1-1.78.84l-.19,0a3.55,3.55,0,0,1-.93.07,1,1,0,0,1-.42-.1A.55.55,0,0,1,18.3,12a.89.89,0,0,1,0-.58l-1.09.89-2.45,2v3.29l8-6.33a.5.5,0,0,1,0-.21c.06-.22.06-.33,0-.32Zm3.46,1.06c-.12,0-.32.17-.65.52a4.07,4.07,0,0,1-1.5,1l-.06,0-.18.07-.38.11a3.74,3.74,0,0,1-1,.15,1.22,1.22,0,0,1-.46-.09.57.57,0,0,1-.31-.3,1.36,1.36,0,0,1,.16-1L14.77,17.9v2h3.11l6.61-5.18q.26-.29.78-.78c.93-.86,1.14-1.16,1.14-1.6s0-.52-.16-.52Zm1.57,3.25-.56.56a5,5,0,0,1-1.27.83l-.08,0h0l0,0,0,0a4.26,4.26,0,0,1-.47.15,5.1,5.1,0,0,1-1.09.2,1.77,1.77,0,0,1-.51,0,.62.62,0,0,1-.37-.24.61.61,0,0,1-.05-.49,1.5,1.5,0,0,1,.15-.42L18.2,19.91h7.08l.85-1c1.16-1.35,1.69-2.32,1.69-3.15Z"/></svg>