<svg id="Camada_1" data-name="Camada 1" xmlns="http://www.w3.org/2000/svg" viewBox="0 0 465 295"><defs><style>.cls-1{fill:#be44f2;}.cls-2{fill:#05dbf2;}</style></defs><path class="cls-1" d="M444,135.92V31.15a10.7,10.7,0,0,0-10.69-10.69H299.58A59.57,59.57,0,0,0,240,80v6.61a59.57,59.57,0,0,0,59.58,59.58H250.32A10.32,10.32,0,0,0,240,156.56V261.68A10.32,10.32,0,0,0,250.32,272H385a59,59,0,0,0,59-59V205.2a59,59,0,0,0-59-59h48.65A10.32,10.32,0,0,0,444,135.92Z"/><path class="cls-2" d="M140,20h67a11,11,0,0,1,11,11V261a11,11,0,0,1-11,11H140A126,126,0,0,1,14,146v0A126,126,0,0,1,140,20Z"/></svg>