<svg id="Camada_1" data-name="Camada 1" xmlns="http://www.w3.org/2000/svg" viewBox="0 0 1000 1000"><defs><style>.cls-1{fill:#05dbf2;}.cls-2{fill:#f0f;}.cls-3{fill:#8a038e;}</style></defs><path class="cls-1" d="M629.17,402.39,498.08,596.69H391L302.71,727.48a14.42,14.42,0,0,0,12,22.49H598.83a14.44,14.44,0,0,0,12-6.36l215-318.73a14.42,14.42,0,0,0-12-22.49Z"/><path class="cls-2" d="M629.17,402.39l87.25-129.33a15.36,15.36,0,0,0-12.73-23.95H421.79a15.38,15.38,0,0,0-12.74,6.77L195.28,572.74a15.36,15.36,0,0,0,12.73,24H391L522,402.39Z"/><polygon class="cls-3" points="629.17 402.39 522.04 402.39 390.95 596.69 498.08 596.69 629.17 402.39"/></svg>